<svg id="Component_5_1" data-name="Component 5 – 1" xmlns="http://www.w3.org/2000/svg" width="35.916" height="36.572" viewBox="0 0 35.916 36.572">
  <g id="cup" transform="translate(1.839 5.889)">
    <path id="Path_8594" data-name="Path 8594" d="M12.427,20.678A1.034,1.034,0,0,1,11.4,19.652V16.777a1.027,1.027,0,0,1,2.053,0v2.875A1.034,1.034,0,0,1,12.427,20.678Z" transform="translate(3.69 5.35)" fill="#f6bb4a"/>
    <path id="Path_8595" data-name="Path 8595" d="M22.143,24.41H6.4v-2.4a3.762,3.762,0,0,1,3.765-3.765h8.214a3.762,3.762,0,0,1,3.765,3.765ZM8.454,22.357H20.09v-.342A1.712,1.712,0,0,0,18.379,20.3H10.165a1.712,1.712,0,0,0-1.711,1.711Z" transform="translate(1.845 6.272)" fill="#f6bb4a"/>
    <path id="Path_8596" data-name="Path 8596" d="M22.855,23.3H6.427a1.027,1.027,0,0,1,0-2.053H22.855a1.027,1.027,0,0,1,0,2.053Z" transform="translate(1.476 7.379)" fill="#f6bb4a"/>
    <path id="Path_8597" data-name="Path 8597" d="M18.709,15.716a1.043,1.043,0,0,1-.78-.356,1.013,1.013,0,0,1-.164-1.081,8.42,8.42,0,0,0,.7-3.4V6.777a4.47,4.47,0,0,0-.246-1.437c-.014-.041-.027-.1-.041-.151a3.081,3.081,0,0,1-.055-.6A1.034,1.034,0,0,1,19.147,3.56h.821a4.524,4.524,0,0,1,4.449,4.586A8.072,8.072,0,0,1,22.063,13.8c-.027.027-.11.1-.123.11a7.993,7.993,0,0,1-2.957,1.766A.949.949,0,0,1,18.709,15.716ZM20.42,5.655a6.217,6.217,0,0,1,.1,1.123v4.107a10.925,10.925,0,0,1-.123,1.643l.233-.192a5.985,5.985,0,0,0,1.739-4.189A2.5,2.5,0,0,0,20.42,5.655Z" transform="translate(6.005 0.852)" fill="#f6bb4a"/>
    <path id="Path_8598" data-name="Path 8598" d="M7.123,15.647a.849.849,0,0,1-.315-.055A7.616,7.616,0,0,1,3.755,13.7,8.3,8.3,0,0,1,1.4,8.049,4.406,4.406,0,0,1,5.849,3.6h.89a1.047,1.047,0,0,1,.862.465,1.024,1.024,0,0,1,.082.972A4.047,4.047,0,0,0,7.355,6.68v4.107a8.475,8.475,0,0,0,.712,3.422,1.035,1.035,0,0,1-.178,1.1A1.05,1.05,0,0,1,7.123,15.647ZM5.37,5.695A2.372,2.372,0,0,0,3.454,8.049a6.271,6.271,0,0,0,1.793,4.244,1.182,1.182,0,0,0,.192.178A9.978,9.978,0,0,1,5.3,10.787V6.68A7.95,7.95,0,0,1,5.37,5.695Z" transform="translate(0 0.867)" fill="#f6bb4a"/>
    <path id="Path_8599" data-name="Path 8599" d="M14.859,22.469A10.627,10.627,0,0,1,4.25,11.859V7.753a6.508,6.508,0,0,1,6.5-6.5h8.214a6.508,6.508,0,0,1,6.5,6.5v4.107A10.627,10.627,0,0,1,14.859,22.469ZM10.753,3.3A4.458,4.458,0,0,0,6.3,7.753v4.107a8.556,8.556,0,1,0,17.112,0V7.753A4.458,4.458,0,0,0,18.966,3.3Z" transform="translate(1.051 0)" fill="#f6bb4a"/>
  </g>
  <g id="Star_icon" data-name="Star icon" transform="translate(29.177 -3.976)">
    <path id="Path_8600" data-name="Path 8600" d="M5.3,7.01a.529.529,0,0,0,.147-.551.569.569,0,0,0-.441-.367L3.87,5.908a.507.507,0,0,1-.147-.11L3.209,4.77a.529.529,0,0,0-.477-.294.573.573,0,0,0-.477.294L1.74,5.8c-.037.073-.073.11-.147.11L.454,6.092a.569.569,0,0,0-.441.367.615.615,0,0,0,.147.551l.808.808c.037.037.037.073.037.147L.858,9.1a.483.483,0,0,0,.11.441.562.562,0,0,0,.661.147l1.028-.514a.112.112,0,0,1,.147,0l1.028.514a.681.681,0,0,0,.257.073.635.635,0,0,0,.441-.22.616.616,0,0,0,.11-.441L4.458,7.965c-.037-.037,0-.11.037-.147ZM4.09,8.075l.184,1.139c0,.073,0,.11-.037.147a.225.225,0,0,1-.22.037L2.989,8.883a.681.681,0,0,0-.257-.073.35.35,0,0,0-.257.073L1.446,9.4c-.073.037-.184.037-.22-.037-.037-.037-.037-.073-.037-.147l.147-1.139A.543.543,0,0,0,1.189,7.6L.381,6.79a.162.162,0,0,1-.037-.184A.164.164,0,0,1,.491,6.5L1.63,6.312a.569.569,0,0,0,.4-.294L2.548,4.99a.207.207,0,0,1,.331,0l.514,1.028a.569.569,0,0,0,.4.294L4.935,6.5c.11,0,.147.073.147.11a.162.162,0,0,1-.037.184L4.237,7.6A.578.578,0,0,0,4.09,8.075Z" transform="translate(0)" fill="#f6bb4a"/>
    <path id="Path_8600_-_Outline" data-name="Path 8600 - Outline" d="M2.731,3.976a1.026,1.026,0,0,1,.932.585l.439.879.985.159a1.064,1.064,0,0,1,.825.675,1.018,1.018,0,0,1-.258,1.09l-.679.679.156.965a1.128,1.128,0,0,1-.185.814l-.027.041L4.885,9.9a1.114,1.114,0,0,1-.794.367,1.181,1.181,0,0,1-.481-.126L2.731,9.7l-.878.439a1.012,1.012,0,0,1-.451.1,1.062,1.062,0,0,1-.807-.366.982.982,0,0,1-.229-.861l.125-.969-.684-.684a1.1,1.1,0,0,1-.284-1l.009-.045.017-.043A1.063,1.063,0,0,1,.372,5.6l.988-.159.465-.927A1.075,1.075,0,0,1,2.731,3.976ZM4.238,6.89,3.7,6.8a1.062,1.062,0,0,1-.753-.561l-.232-.464-.232.464a1.062,1.062,0,0,1-.753.561l-.018,0-.521.084.354.354a1.042,1.042,0,0,1,.287.909l-.068.527L2.2,8.461a.869.869,0,0,1,.532-.152,1.181,1.181,0,0,1,.481.126l.468.234L3.6,8.163A1.07,1.07,0,0,1,3.837,7.3l.021-.028Z" transform="translate(0)" fill="#f6bb4a"/>
  </g>
  <g id="Star_icon-2" data-name="Star icon" transform="translate(0.5 19.019)">
    <path id="Path_8600-2" data-name="Path 8600" d="M5.3,7.01a.529.529,0,0,0,.147-.551.569.569,0,0,0-.441-.367L3.87,5.908a.507.507,0,0,1-.147-.11L3.209,4.77a.529.529,0,0,0-.477-.294.573.573,0,0,0-.477.294L1.74,5.8c-.037.073-.073.11-.147.11L.454,6.092a.569.569,0,0,0-.441.367.615.615,0,0,0,.147.551l.808.808c.037.037.037.073.037.147L.858,9.1a.483.483,0,0,0,.11.441.562.562,0,0,0,.661.147l1.028-.514a.112.112,0,0,1,.147,0l1.028.514a.681.681,0,0,0,.257.073.635.635,0,0,0,.441-.22.616.616,0,0,0,.11-.441L4.458,7.965c-.037-.037,0-.11.037-.147ZM4.09,8.075l.184,1.139c0,.073,0,.11-.037.147a.225.225,0,0,1-.22.037L2.989,8.883a.681.681,0,0,0-.257-.073.35.35,0,0,0-.257.073L1.446,9.4c-.073.037-.184.037-.22-.037-.037-.037-.037-.073-.037-.147l.147-1.139A.543.543,0,0,0,1.189,7.6L.381,6.79a.162.162,0,0,1-.037-.184A.164.164,0,0,1,.491,6.5L1.63,6.312a.569.569,0,0,0,.4-.294L2.548,4.99a.207.207,0,0,1,.331,0l.514,1.028a.569.569,0,0,0,.4.294L4.935,6.5c.11,0,.147.073.147.11a.162.162,0,0,1-.037.184L4.237,7.6A.578.578,0,0,0,4.09,8.075Z" transform="translate(0)" fill="#f6bb4a"/>
    <path id="Path_8600_-_Outline-2" data-name="Path 8600 - Outline" d="M2.731,3.976a1.026,1.026,0,0,1,.932.585l.439.879.985.159a1.064,1.064,0,0,1,.825.675,1.018,1.018,0,0,1-.258,1.09l-.679.679.156.965a1.128,1.128,0,0,1-.185.814l-.027.041L4.885,9.9a1.114,1.114,0,0,1-.794.367,1.181,1.181,0,0,1-.481-.126L2.731,9.7l-.878.439a1.012,1.012,0,0,1-.451.1,1.062,1.062,0,0,1-.807-.366.982.982,0,0,1-.229-.861l.125-.969-.684-.684a1.1,1.1,0,0,1-.284-1l.009-.045.017-.043A1.063,1.063,0,0,1,.372,5.6l.988-.159.465-.927A1.075,1.075,0,0,1,2.731,3.976ZM4.238,6.89,3.7,6.8a1.062,1.062,0,0,1-.753-.561l-.232-.464-.232.464a1.062,1.062,0,0,1-.753.561l-.018,0-.521.084.354.354a1.042,1.042,0,0,1,.287.909l-.068.527L2.2,8.461a.869.869,0,0,1,.532-.152,1.181,1.181,0,0,1,.481.126l.468.234L3.6,8.163A1.07,1.07,0,0,1,3.837,7.3l.021-.028Z" transform="translate(0)" fill="#f6bb4a"/>
  </g>
  <g id="Star_icon-3" data-name="Star icon" transform="translate(3.74 -0.778)">
    <path id="Path_8600-3" data-name="Path 8600" d="M3.274,6.04a.326.326,0,0,0,.091-.34.351.351,0,0,0-.272-.227l-.7-.113A.313.313,0,0,1,2.3,5.292l-.317-.635a.327.327,0,0,0-.295-.181.354.354,0,0,0-.295.181l-.317.635c-.023.045-.045.068-.091.068l-.7.113A.351.351,0,0,0,.009,5.7.38.38,0,0,0,.1,6.04l.5.5c.023.023.023.045.023.091l-.091.7A.3.3,0,0,0,.6,7.6a.347.347,0,0,0,.408.091l.635-.317a.069.069,0,0,1,.091,0l.635.317a.42.42,0,0,0,.159.045A.392.392,0,0,0,2.8,7.6a.38.38,0,0,0,.068-.272l-.113-.7c-.023-.023,0-.068.023-.091ZM2.525,6.7l.113.7c0,.045,0,.068-.023.091a.139.139,0,0,1-.136.023L1.845,7.2a.42.42,0,0,0-.159-.045.216.216,0,0,0-.159.045l-.635.317c-.045.023-.113.023-.136-.023C.734,7.469.734,7.446.734,7.4l.091-.7A.335.335,0,0,0,.734,6.4l-.5-.5a.1.1,0,0,1-.023-.113A.1.1,0,0,1,.3,5.723l.7-.113a.351.351,0,0,0,.249-.181l.317-.635a.128.128,0,0,1,.2,0l.317.635a.351.351,0,0,0,.249.181l.7.113c.068,0,.091.045.091.068a.1.1,0,0,1-.023.113l-.5.5A.357.357,0,0,0,2.525,6.7Z" transform="translate(-0.192 -0.191)" fill="#f6bb4a"/>
    <path id="Path_8600_-_Outline-3" data-name="Path 8600 - Outline" d="M1.495,3.976a.633.633,0,0,1,.575.361l.271.543.608.1a.657.657,0,0,1,.51.417.628.628,0,0,1-.159.673l-.419.419.1.6a.7.7,0,0,1-.114.5l-.017.025-.022.022a.688.688,0,0,1-.49.226.729.729,0,0,1-.3-.078l-.542-.271L.953,7.78a.625.625,0,0,1-.278.065.656.656,0,0,1-.5-.226.606.606,0,0,1-.142-.532l.077-.6-.422-.422a.681.681,0,0,1-.175-.619l.006-.028.011-.026a.657.657,0,0,1,.508-.417l.61-.1.287-.572A.664.664,0,0,1,1.495,3.976Zm.93,1.8-.333-.054a.656.656,0,0,1-.465-.346l-.143-.287-.143.287a.656.656,0,0,1-.465.346l-.011,0-.322.052.219.219a.643.643,0,0,1,.177.561L.9,6.88l.27-.135a.537.537,0,0,1,.328-.094.729.729,0,0,1,.3.078l.289.144L2.03,6.561a.66.66,0,0,1,.148-.534l.013-.018Z" transform="translate(0)" fill="#f6bb4a"/>
  </g>
  <g id="Star_icon-4" data-name="Star icon" transform="translate(32.416 17.222)">
    <path id="Path_8600-4" data-name="Path 8600" d="M3.274,6.04a.326.326,0,0,0,.091-.34.351.351,0,0,0-.272-.227l-.7-.113A.313.313,0,0,1,2.3,5.292l-.317-.635a.327.327,0,0,0-.295-.181.354.354,0,0,0-.295.181l-.317.635c-.023.045-.045.068-.091.068l-.7.113A.351.351,0,0,0,.009,5.7.38.38,0,0,0,.1,6.04l.5.5c.023.023.023.045.023.091l-.091.7A.3.3,0,0,0,.6,7.6a.347.347,0,0,0,.408.091l.635-.317a.069.069,0,0,1,.091,0l.635.317a.42.42,0,0,0,.159.045A.392.392,0,0,0,2.8,7.6a.38.38,0,0,0,.068-.272l-.113-.7c-.023-.023,0-.068.023-.091ZM2.525,6.7l.113.7c0,.045,0,.068-.023.091a.139.139,0,0,1-.136.023L1.845,7.2a.42.42,0,0,0-.159-.045.216.216,0,0,0-.159.045l-.635.317c-.045.023-.113.023-.136-.023C.734,7.469.734,7.446.734,7.4l.091-.7A.335.335,0,0,0,.734,6.4l-.5-.5a.1.1,0,0,1-.023-.113A.1.1,0,0,1,.3,5.723l.7-.113a.351.351,0,0,0,.249-.181l.317-.635a.128.128,0,0,1,.2,0l.317.635a.351.351,0,0,0,.249.181l.7.113c.068,0,.091.045.091.068a.1.1,0,0,1-.023.113l-.5.5A.357.357,0,0,0,2.525,6.7Z" transform="translate(-0.192 -0.191)" fill="#f6bb4a"/>
    <path id="Path_8600_-_Outline-4" data-name="Path 8600 - Outline" d="M1.495,3.976a.633.633,0,0,1,.575.361l.271.543.608.1a.657.657,0,0,1,.51.417.628.628,0,0,1-.159.673l-.419.419.1.6a.7.7,0,0,1-.114.5l-.017.025-.022.022a.688.688,0,0,1-.49.226.729.729,0,0,1-.3-.078l-.542-.271L.953,7.78a.625.625,0,0,1-.278.065.656.656,0,0,1-.5-.226.606.606,0,0,1-.142-.532l.077-.6-.422-.422a.681.681,0,0,1-.175-.619l.006-.028.011-.026a.657.657,0,0,1,.508-.417l.61-.1.287-.572A.664.664,0,0,1,1.495,3.976Zm.93,1.8-.333-.054a.656.656,0,0,1-.465-.346l-.143-.287-.143.287a.656.656,0,0,1-.465.346l-.011,0-.322.052.219.219a.643.643,0,0,1,.177.561L.9,6.88l.27-.135a.537.537,0,0,1,.328-.094.729.729,0,0,1,.3.078l.289.144L2.03,6.561a.66.66,0,0,1,.148-.534l.013-.018Z" transform="translate(0)" fill="#f6bb4a"/>
  </g>
</svg>
