<svg xmlns="http://www.w3.org/2000/svg" xmlns:xlink="http://www.w3.org/1999/xlink" width="326" height="90" viewBox="0 0 326 90">
  <defs>
    <clipPath id="clip-path">
      <rect id="Rectangle_902" data-name="Rectangle 902" width="326" height="90" rx="10" transform="translate(25 107)" fill="#b98d39"/>
    </clipPath>
  </defs>
  <g id="Mask_Group_26" data-name="Mask Group 26" transform="translate(-25 -107)" opacity="0.924" clip-path="url(#clip-path)">
    <g id="Group_9763" data-name="Group 9763" transform="translate(0 104)" opacity="0.174">
      <g id="Group_9503" data-name="Group 9503" transform="translate(-1258.317 415.283)">
        <path id="Path_4757" data-name="Path 4757" d="M2331.356-445.73c-.424,1.754-.823,3.515-1.278,5.261-.71,2.724-1.453,5.44-2.194,8.156a1.17,1.17,0,0,0,.332,1.292c4.569,4.532,9.11,9.091,13.686,13.616a1.343,1.343,0,0,0,1.081.31q9.428-2.475,18.831-5.046a1.259,1.259,0,0,0,.735-.76q2.549-9.36,5.007-18.746a1.542,1.542,0,0,0-.343-1.171c-.846-1.008-1.774-1.947-2.671-2.912h4.88c.6.634,1.236,1.236,1.775,1.917a1.462,1.462,0,0,1,.307,1.1c-1.635,6.126-3.317,12.239-4.977,18.358-.355,1.311-.7,2.628-.982,3.956a1.423,1.423,0,0,1-1.145,1.236c-7.467,1.99-14.926,4.014-22.4,5.99a1.43,1.43,0,0,1-1.155-.326q-8.314-8.24-16.561-16.548a1.309,1.309,0,0,1-.333-1.043c1.269-4.886,2.584-9.76,3.888-14.636Z" transform="translate(-840.514)" fill="#b98d39"/>
        <path id="Path_4758" data-name="Path 4758" d="M1980.333-379.186c-.67,2.476-1.3,4.785-1.918,7.1q-5.3,19.841-10.589,39.686a1.492,1.492,0,0,1-1.2,1.255q-12.441,3.263-24.862,6.6-10.5,2.811-20.989,5.677a1.838,1.838,0,0,1-2.1-.527q-16.692-16.772-33.463-33.466a1.725,1.725,0,0,1-.517-1.937q5.372-19.865,10.693-39.745c.562-2.092,1.132-4.183,1.653-6.285a1.274,1.274,0,0,1,1.04-1.064q17.634-4.689,35.257-9.417c3.687-.986,7.383-1.943,11.056-2.977a1.34,1.34,0,0,1,1.52.434q17,17.013,34.006,34.01A3.03,3.03,0,0,1,1980.333-379.186Zm-88.883,23.442a3.926,3.926,0,0,0,.489.733q14.442,14.46,28.893,28.91a1.208,1.208,0,0,0,1.36.356q19.769-5.331,39.546-10.628a1.412,1.412,0,0,0,.821-.857q5.349-19.768,10.612-39.558a1.533,1.533,0,0,0-.324-1.248q-14.414-14.486-28.87-28.932a1.235,1.235,0,0,0-1.374-.372c-2.086.584-4.181,1.138-6.275,1.7q-16.5,4.417-33.006,8.812a1.588,1.588,0,0,0-1.247,1.352q-4.3,16.223-8.645,32.437C1892.794-360.662,1892.141-358.29,1891.45-355.744Z" transform="translate(-486.935 -25.242)" fill="#b98d39"/>
        <path id="Path_4759" data-name="Path 4759" d="M2368.838-235.186c.638-2.416,1.224-4.67,1.827-6.919q3.293-12.279,6.58-24.56a1.346,1.346,0,0,1,1.1-1.122q15.474-4.106,30.929-8.284a1.173,1.173,0,0,1,1.331.4q11.3,11.321,22.629,22.612c.342.341.626.613.458,1.234q-4.227,15.541-8.361,31.107a1.272,1.272,0,0,1-1.054,1.045q-11.4,3.038-22.789,6.084c-2.752.732-5.508,1.45-8.275,2.124a1.322,1.322,0,0,1-1.062-.283q-11.465-11.367-22.881-22.784A3.347,3.347,0,0,1,2368.838-235.186Zm24.682,20.894c.331-.094.548-.159.766-.217q2.995-.807,5.991-1.611,10.967-2.934,21.929-5.889a1.347,1.347,0,0,0,.789-.776c.455-1.447.828-2.921,1.221-4.388q3.167-11.8,6.311-23.614a1.47,1.47,0,0,0-.164-1.192q-10.309-10.379-20.7-20.681a1.414,1.414,0,0,0-1.148-.3c-9.26,2.43-18.509,4.9-27.763,7.349a1.621,1.621,0,0,0-1.321,1.294q-3.655,13.835-7.386,27.65a1.3,1.3,0,0,0,.408,1.442q10.2,10.19,20.36,20.414A5.391,5.391,0,0,0,2393.52-214.292Z" transform="translate(-876.651 -136.487)" fill="#b98d39"/>
        <path id="Path_4760" data-name="Path 4760" d="M2202.184,45.952a5.221,5.221,0,0,1,.593.456q8.214,8.206,16.4,16.437a1.294,1.294,0,0,1,.3,1.045c-1.966,7.443-3.978,14.874-5.947,22.316a1.25,1.25,0,0,1-1.039,1.06q-11.068,2.935-22.117,5.944a1.292,1.292,0,0,1-1.441-.389q-8-8.074-16.072-16.08a1.42,1.42,0,0,1-.448-1.607c2-7.365,3.956-14.744,5.912-22.122a1.169,1.169,0,0,1,.93-.947q11.123-2.941,22.236-5.923C2201.679,46.091,2201.866,46.039,2202.184,45.952Zm-26.449,28.971a4.437,4.437,0,0,0,.5.711c4.57,4.585,9.157,9.152,13.711,13.752a1.215,1.215,0,0,0,1.369.325q9.323-2.527,18.654-5.021a1.2,1.2,0,0,0,.989-1q2.49-9.425,5.059-18.83a1.008,1.008,0,0,0-.393-1.152q-6.867-6.864-13.716-13.745a1.3,1.3,0,0,0-1.475-.311q-9.179,2.494-18.376,4.928a1.485,1.485,0,0,0-1.231,1.225c-1.181,4.507-2.415,9-3.623,13.5C2176.718,71.113,2176.255,72.931,2175.735,74.923Z" transform="translate(-718.505 -395.701)" fill="#b98d39"/>
        <path id="Path_4761" data-name="Path 4761" d="M1518.562,211.791a4.472,4.472,0,0,1-.587-.439q-7.389-7.372-14.781-14.741a1.385,1.385,0,0,1-.372-1.533c1.807-6.678,3.6-13.359,5.437-20.029a1.431,1.431,0,0,1,.827-.868q10.157-2.765,20.341-5.429a1.231,1.231,0,0,1,1,.262q7.561,7.476,15.057,15.019a1.368,1.368,0,0,1,.18,1.115c-1.606,6.068-3.343,12.1-4.823,18.2a4.007,4.007,0,0,1-3.472,3.439c-6.072,1.441-12.074,3.177-18.1,4.8C1519.076,211.639,1518.89,211.7,1518.562,211.791Zm.617-2.684a5.675,5.675,0,0,0,.576-.074q8.947-2.413,17.888-4.85a1.122,1.122,0,0,0,.646-.684q2.4-8.9,4.732-17.809a1.126,1.126,0,0,0-.159-.917q-6.558-6.613-13.178-13.165a1.112,1.112,0,0,0-.9-.231q-8.929,2.345-17.836,4.771a1.324,1.324,0,0,0-.749.816c-1.6,5.842-3.15,11.7-4.741,17.541a1.133,1.133,0,0,0,.3,1.291q6.465,6.431,12.9,12.9A4.52,4.52,0,0,0,1519.179,209.107Z" transform="translate(-179.624 -494.511)" fill="#b98d39"/>
        <path id="Path_4762" data-name="Path 4762" d="M1482.668-139.9a4.759,4.759,0,0,1-.586-.445q-7.456-7.44-14.885-14.907a1.293,1.293,0,0,1-.259-1.054q2.682-10.182,5.451-20.341a1.3,1.3,0,0,1,.764-.784q10.207-2.786,20.439-5.483a1.2,1.2,0,0,1,.977.251c4.985,4.947,9.94,9.924,14.92,14.877a1.146,1.146,0,0,1,.3,1.292q-2.71,10.021-5.372,20.054a1.162,1.162,0,0,1-.887.985q-10.174,2.7-20.341,5.429C1483.059-139.988,1482.933-139.96,1482.668-139.9Zm-13.245-16.675a3.815,3.815,0,0,0,.472.694q6.431,6.469,12.9,12.9a1.319,1.319,0,0,0,1.068.288q8.875-2.312,17.724-4.723a1.447,1.447,0,0,0,.845-.871q2.405-8.8,4.707-17.622a1.417,1.417,0,0,0-.291-1.15c-4.252-4.3-8.543-8.567-12.808-12.859a1.252,1.252,0,0,0-1.38-.369q-8.765,2.385-17.543,4.722a1.019,1.019,0,0,0-.841.878c-.92,3.5-1.893,7-2.836,10.494C1470.774-161.717,1470.13-159.243,1469.423-156.571Z" transform="translate(-150.79 -211.496)" fill="#b98d39"/>
        <path id="Path_4763" data-name="Path 4763" d="M1674.037-384.517c-.641,2.39-1.235,4.606-1.83,6.821-1.871,6.968-3.757,13.932-5.589,20.91a1.267,1.267,0,0,1-1.064,1.034q-8.721,2.324-17.437,4.671c-3.249.87-6.5,1.717-9.746,2.613a1.137,1.137,0,0,1-1.282-.337q-9.979-10.016-20-19.991a1.154,1.154,0,0,1-.293-1.29q2.84-10.59,5.693-21.176c.538-2,1.109-3.989,1.593-6a1.263,1.263,0,0,1,1.058-1.04q12.047-3.205,24.088-6.434a7.1,7.1,0,0,0,1.215-.331c1.858-.879,3.125-.325,4.559,1.161,5.844,6.059,11.856,11.957,17.8,17.915.321.321.649.637.946.98A2.374,2.374,0,0,1,1674.037-384.517Zm-1.731.286a3.014,3.014,0,0,0-.352-.478c-.321-.321-.687-.6-1.009-.917q-8.9-8.895-17.785-17.806a1.18,1.18,0,0,0-1.341-.372c-8.522,2.306-17.055,4.57-25.574,6.889a1.549,1.549,0,0,0-.861.968c-2.275,8.4-4.5,16.81-6.771,25.21a1.43,1.43,0,0,0,.4,1.606q9.33,9.29,18.644,18.6a1.428,1.428,0,0,0,1.165.274c8.443-2.223,16.874-4.494,25.318-6.715a1.559,1.559,0,0,0,1.256-1.327c2.083-7.812,4.21-15.612,6.317-23.418C1671.929-382.5,1672.088-383.294,1672.306-384.231Z" transform="translate(-271.354 -32.387)" fill="#b98d39"/>
        <path id="Path_4764" data-name="Path 4764" d="M1300.6,376.2a8.377,8.377,0,0,1-.723-.59q-6.593-6.58-13.176-13.17c-2.23-2.23-4.446-4.474-6.695-6.685a1.186,1.186,0,0,1-.39-1.342q3.673-13.577,7.279-27.172a1.3,1.3,0,0,1,1.062-1.045q13.4-3.565,26.793-7.189a1.715,1.715,0,0,1,1.943.507q9.784,9.866,19.646,19.656a1.3,1.3,0,0,1,.361,1.462q-3.665,13.535-7.259,27.09c-.137.514-.3.846-.865,1q-13.783,3.661-27.557,7.353C1300.921,376.093,1300.829,376.125,1300.6,376.2Zm34.507-35.741a3.116,3.116,0,0,0-.42-.66q-9.438-9.463-18.907-18.9a1.114,1.114,0,0,0-.9-.246q-12.9,3.424-25.778,6.925a1.434,1.434,0,0,0-.846.857c-2.313,8.521-4.579,17.056-6.888,25.578a1.1,1.1,0,0,0,.372,1.239q9.32,9.3,18.616,18.631a1.191,1.191,0,0,0,1.351.378q12.737-3.47,25.5-6.845a1.1,1.1,0,0,0,.929-.92c1.707-6.446,3.45-12.884,5.182-19.324C1333.895,344.99,1334.475,342.8,1335.1,340.456Z" transform="translate(0 -615.365)" fill="#b98d39"/>
        <path id="Path_4765" data-name="Path 4765" d="M1740.185,242.011a4.459,4.459,0,0,1,.666.48q5.284,5.261,10.534,10.556a1.252,1.252,0,0,1,.179,1.018q-1.859,7.181-3.8,14.34a1.328,1.328,0,0,1-.781.793c-4.8,1.327-9.608,2.6-14.409,3.915a1.04,1.04,0,0,1-1.176-.319c-3.456-3.486-6.943-6.941-10.389-10.437a1.448,1.448,0,0,1-.366-1.149q1.846-7.2,3.81-14.369a1.359,1.359,0,0,1,.775-.831c4.8-1.326,9.613-2.6,14.424-3.891C1739.776,242.083,1739.905,242.066,1740.185,242.011ZM1723.561,260.8a3.549,3.549,0,0,0,.441.671c2.75,2.764,5.5,5.527,8.287,8.255a1.321,1.321,0,0,0,1.063.278q5.736-1.442,11.443-2.993a1.248,1.248,0,0,0,.682-.782q1.569-5.649,3.046-11.323a1.356,1.356,0,0,0-.262-1.1q-4.128-4.212-8.34-8.34a1.229,1.229,0,0,0-.991-.27q-5.722,1.484-11.418,3.069a1.325,1.325,0,0,0-.764.783c-.563,1.888-1.058,3.8-1.57,5.7C1724.648,256.714,1724.126,258.682,1723.561,260.8Z" transform="translate(-354.973 -553.487)" fill="#b98d39"/>
        <path id="Path_4766" data-name="Path 4766" d="M1321.6-164.6a3.416,3.416,0,0,1-.545-.394q-5.28-5.271-10.528-10.573a1.359,1.359,0,0,1-.267-1.1q1.877-7.178,3.854-14.329a1.329,1.329,0,0,1,.791-.778q7.152-1.99,14.332-3.877a1.431,1.431,0,0,1,1.156.317q5.285,5.195,10.489,10.471a1.422,1.422,0,0,1,.319,1.148q-1.877,7.18-3.86,14.332a1.247,1.247,0,0,1-.658.79c-4.83,1.334-9.672,2.624-14.512,3.92C1322.043-164.647,1321.91-164.644,1321.6-164.6Zm.891-2.989c.138-.055.2-.086.259-.1,3.9-1.053,7.807-2.1,11.7-3.179a1.129,1.129,0,0,0,.656-.68q1.558-5.707,3.028-11.437a1.222,1.222,0,0,0-.259-.987q-4.167-4.245-8.4-8.421a1.031,1.031,0,0,0-.819-.265q-5.82,1.521-11.618,3.128a1.12,1.12,0,0,0-.643.679q-1.587,5.749-3.094,11.52a1.017,1.017,0,0,0,.171.83q4.245,4.306,8.541,8.563A3.581,3.581,0,0,0,1322.487-167.591Z" transform="translate(-24.693 -201.234)" fill="#b98d39"/>
        <path id="Path_4767" data-name="Path 4767" d="M2110.337,250.027c-.291,1.1-.527,2.005-.77,2.91-.948,3.531-1.912,7.057-2.83,10.6a1.212,1.212,0,0,1-.991.993c-4.345,1.145-8.681,2.326-13.032,3.452a1.353,1.353,0,0,1-1.091-.3q-4.9-4.815-9.719-9.71a1.231,1.231,0,0,1-.191-1q1.734-6.662,3.549-13.3a1.021,1.021,0,0,1,.608-.6q6.688-1.846,13.4-3.612a1.255,1.255,0,0,1,1,.315q4.828,4.754,9.6,9.564A3.857,3.857,0,0,1,2110.337,250.027Zm-26.147,6.685a3.493,3.493,0,0,0,.439.67c2.542,2.559,5.086,5.118,7.668,7.638a1.437,1.437,0,0,0,1.155.316q5.26-1.353,10.487-2.834a1.446,1.446,0,0,0,.86-.843q1.456-5.238,2.786-10.51a1.244,1.244,0,0,0-.286-1q-3.857-3.933-7.79-7.791a1.308,1.308,0,0,0-1.062-.235c-3.411.88-6.8,1.841-10.219,2.7a1.45,1.45,0,0,0-1.218,1.237c-.533,2.132-1.128,4.248-1.694,6.371C2084.95,253.807,2084.592,255.183,2084.19,256.712Z" transform="translate(-645.55 -551.413)" fill="#b98d39"/>
        <path id="Path_4768" data-name="Path 4768" d="M2446.771,163.609a3.689,3.689,0,0,1-.5-.375c-2.762-2.753-5.527-5.5-8.26-8.285a1.214,1.214,0,0,1-.251-.982c.956-3.691,1.974-7.366,2.927-11.058a1.325,1.325,0,0,1,1.127-1.1c3.664-.941,7.308-1.957,10.971-2.9a1.339,1.339,0,0,1,1.082.283c2.737,2.683,5.427,5.414,8.155,8.106a1.155,1.155,0,0,1,.342,1.281c-1,3.68-1.974,7.367-2.991,11.042a1.256,1.256,0,0,1-.661.794c-3.8,1.069-7.6,2.089-11.411,3.119A5.237,5.237,0,0,1,2446.771,163.609Zm.541-1.768c.278-.039.377-.043.471-.068,3.187-.854,6.376-1.7,9.553-2.587a1.162,1.162,0,0,0,.7-.671q1.333-4.815,2.567-9.657a1.13,1.13,0,0,0-.254-.908q-3.518-3.585-7.1-7.1a1.03,1.03,0,0,0-.829-.235c-3.193.833-6.381,1.687-9.553,2.593a1.421,1.421,0,0,0-.811.856c-.886,3.144-1.725,6.3-2.542,9.465a1.109,1.109,0,0,0,.2.9c2.3,2.345,4.627,4.662,6.958,6.975A3.6,3.6,0,0,0,2447.312,161.841Z" transform="translate(-932.1 -470.494)" fill="#b98d39"/>
      </g>
      <g id="Group_9504" data-name="Group 9504" transform="translate(-994.317 360.283)">
        <path id="Path_4757-2" data-name="Path 4757" d="M2331.356-445.73c-.424,1.754-.823,3.515-1.278,5.261-.71,2.724-1.453,5.44-2.194,8.156a1.17,1.17,0,0,0,.332,1.292c4.569,4.532,9.11,9.091,13.686,13.616a1.343,1.343,0,0,0,1.081.31q9.428-2.475,18.831-5.046a1.259,1.259,0,0,0,.735-.76q2.549-9.36,5.007-18.746a1.542,1.542,0,0,0-.343-1.171c-.846-1.008-1.774-1.947-2.671-2.912h4.88c.6.634,1.236,1.236,1.775,1.917a1.462,1.462,0,0,1,.307,1.1c-1.635,6.126-3.317,12.239-4.977,18.358-.355,1.311-.7,2.628-.982,3.956a1.423,1.423,0,0,1-1.145,1.236c-7.467,1.99-14.926,4.014-22.4,5.99a1.43,1.43,0,0,1-1.155-.326q-8.314-8.24-16.561-16.548a1.309,1.309,0,0,1-.333-1.043c1.269-4.886,2.584-9.76,3.888-14.636Z" transform="translate(-840.514)" fill="#b98d39"/>
        <path id="Path_4758-2" data-name="Path 4758" d="M1980.333-379.186c-.67,2.476-1.3,4.785-1.918,7.1q-5.3,19.841-10.589,39.686a1.492,1.492,0,0,1-1.2,1.255q-12.441,3.263-24.862,6.6-10.5,2.811-20.989,5.677a1.838,1.838,0,0,1-2.1-.527q-16.692-16.772-33.463-33.466a1.725,1.725,0,0,1-.517-1.937q5.372-19.865,10.693-39.745c.562-2.092,1.132-4.183,1.653-6.285a1.274,1.274,0,0,1,1.04-1.064q17.634-4.689,35.257-9.417c3.687-.986,7.383-1.943,11.056-2.977a1.34,1.34,0,0,1,1.52.434q17,17.013,34.006,34.01A3.03,3.03,0,0,1,1980.333-379.186Zm-88.883,23.442a3.926,3.926,0,0,0,.489.733q14.442,14.46,28.893,28.91a1.208,1.208,0,0,0,1.36.356q19.769-5.331,39.546-10.628a1.412,1.412,0,0,0,.821-.857q5.349-19.768,10.612-39.558a1.533,1.533,0,0,0-.324-1.248q-14.414-14.486-28.87-28.932a1.235,1.235,0,0,0-1.374-.372c-2.086.584-4.181,1.138-6.275,1.7q-16.5,4.417-33.006,8.812a1.588,1.588,0,0,0-1.247,1.352q-4.3,16.223-8.645,32.437C1892.794-360.662,1892.141-358.29,1891.45-355.744Z" transform="translate(-486.935 -25.242)" fill="#b98d39"/>
        <path id="Path_4759-2" data-name="Path 4759" d="M2368.838-235.186c.638-2.416,1.224-4.67,1.827-6.919q3.293-12.279,6.58-24.56a1.346,1.346,0,0,1,1.1-1.122q15.474-4.106,30.929-8.284a1.173,1.173,0,0,1,1.331.4q11.3,11.321,22.629,22.612c.342.341.626.613.458,1.234q-4.227,15.541-8.361,31.107a1.272,1.272,0,0,1-1.054,1.045q-11.4,3.038-22.789,6.084c-2.752.732-5.508,1.45-8.275,2.124a1.322,1.322,0,0,1-1.062-.283q-11.465-11.367-22.881-22.784A3.347,3.347,0,0,1,2368.838-235.186Zm24.682,20.894c.331-.094.548-.159.766-.217q2.995-.807,5.991-1.611,10.967-2.934,21.929-5.889a1.347,1.347,0,0,0,.789-.776c.455-1.447.828-2.921,1.221-4.388q3.167-11.8,6.311-23.614a1.47,1.47,0,0,0-.164-1.192q-10.309-10.379-20.7-20.681a1.414,1.414,0,0,0-1.148-.3c-9.26,2.43-18.509,4.9-27.763,7.349a1.621,1.621,0,0,0-1.321,1.294q-3.655,13.835-7.386,27.65a1.3,1.3,0,0,0,.408,1.442q10.2,10.19,20.36,20.414A5.391,5.391,0,0,0,2393.52-214.292Z" transform="translate(-876.651 -136.487)" fill="#b98d39"/>
        <path id="Path_4760-2" data-name="Path 4760" d="M2202.184,45.952a5.221,5.221,0,0,1,.593.456q8.214,8.206,16.4,16.437a1.294,1.294,0,0,1,.3,1.045c-1.966,7.443-3.978,14.874-5.947,22.316a1.25,1.25,0,0,1-1.039,1.06q-11.068,2.935-22.117,5.944a1.292,1.292,0,0,1-1.441-.389q-8-8.074-16.072-16.08a1.42,1.42,0,0,1-.448-1.607c2-7.365,3.956-14.744,5.912-22.122a1.169,1.169,0,0,1,.93-.947q11.123-2.941,22.236-5.923C2201.679,46.091,2201.866,46.039,2202.184,45.952Zm-26.449,28.971a4.437,4.437,0,0,0,.5.711c4.57,4.585,9.157,9.152,13.711,13.752a1.215,1.215,0,0,0,1.369.325q9.323-2.527,18.654-5.021a1.2,1.2,0,0,0,.989-1q2.49-9.425,5.059-18.83a1.008,1.008,0,0,0-.393-1.152q-6.867-6.864-13.716-13.745a1.3,1.3,0,0,0-1.475-.311q-9.179,2.494-18.376,4.928a1.485,1.485,0,0,0-1.231,1.225c-1.181,4.507-2.415,9-3.623,13.5C2176.718,71.113,2176.255,72.931,2175.735,74.923Z" transform="translate(-718.505 -395.701)" fill="#b98d39"/>
        <path id="Path_4762-2" data-name="Path 4762" d="M1482.668-139.9a4.759,4.759,0,0,1-.586-.445q-7.456-7.44-14.885-14.907a1.293,1.293,0,0,1-.259-1.054q2.682-10.182,5.451-20.341a1.3,1.3,0,0,1,.764-.784q10.207-2.786,20.439-5.483a1.2,1.2,0,0,1,.977.251c4.985,4.947,9.94,9.924,14.92,14.877a1.146,1.146,0,0,1,.3,1.292q-2.71,10.021-5.372,20.054a1.162,1.162,0,0,1-.887.985q-10.174,2.7-20.341,5.429C1483.059-139.988,1482.933-139.96,1482.668-139.9Zm-13.245-16.675a3.815,3.815,0,0,0,.472.694q6.431,6.469,12.9,12.9a1.319,1.319,0,0,0,1.068.288q8.875-2.312,17.724-4.723a1.447,1.447,0,0,0,.845-.871q2.405-8.8,4.707-17.622a1.417,1.417,0,0,0-.291-1.15c-4.252-4.3-8.543-8.567-12.808-12.859a1.252,1.252,0,0,0-1.38-.369q-8.765,2.385-17.543,4.722a1.019,1.019,0,0,0-.841.878c-.92,3.5-1.893,7-2.836,10.494C1470.774-161.717,1470.13-159.243,1469.423-156.571Z" transform="translate(-150.79 -211.496)" fill="#b98d39"/>
        <path id="Path_4763-2" data-name="Path 4763" d="M1674.037-384.517c-.641,2.39-1.235,4.606-1.83,6.821-1.871,6.968-3.757,13.932-5.589,20.91a1.267,1.267,0,0,1-1.064,1.034q-8.721,2.324-17.437,4.671c-3.249.87-6.5,1.717-9.746,2.613a1.137,1.137,0,0,1-1.282-.337q-9.979-10.016-20-19.991a1.154,1.154,0,0,1-.293-1.29q2.84-10.59,5.693-21.176c.538-2,1.109-3.989,1.593-6a1.263,1.263,0,0,1,1.058-1.04q12.047-3.205,24.088-6.434a7.1,7.1,0,0,0,1.215-.331c1.858-.879,3.125-.325,4.559,1.161,5.844,6.059,11.856,11.957,17.8,17.915.321.321.649.637.946.98A2.374,2.374,0,0,1,1674.037-384.517Zm-1.731.286a3.014,3.014,0,0,0-.352-.478c-.321-.321-.687-.6-1.009-.917q-8.9-8.895-17.785-17.806a1.18,1.18,0,0,0-1.341-.372c-8.522,2.306-17.055,4.57-25.574,6.889a1.549,1.549,0,0,0-.861.968c-2.275,8.4-4.5,16.81-6.771,25.21a1.43,1.43,0,0,0,.4,1.606q9.33,9.29,18.644,18.6a1.428,1.428,0,0,0,1.165.274c8.443-2.223,16.874-4.494,25.318-6.715a1.559,1.559,0,0,0,1.256-1.327c2.083-7.812,4.21-15.612,6.317-23.418C1671.929-382.5,1672.088-383.294,1672.306-384.231Z" transform="translate(-271.354 -32.387)" fill="#b98d39"/>
        <path id="Path_4764-2" data-name="Path 4764" d="M1300.6,376.2a8.377,8.377,0,0,1-.723-.59q-6.593-6.58-13.176-13.17c-2.23-2.23-4.446-4.474-6.695-6.685a1.186,1.186,0,0,1-.39-1.342q3.673-13.577,7.279-27.172a1.3,1.3,0,0,1,1.062-1.045q13.4-3.565,26.793-7.189a1.715,1.715,0,0,1,1.943.507q9.784,9.866,19.646,19.656a1.3,1.3,0,0,1,.361,1.462q-3.665,13.535-7.259,27.09c-.137.514-.3.846-.865,1q-13.783,3.661-27.557,7.353C1300.921,376.093,1300.829,376.125,1300.6,376.2Zm34.507-35.741a3.116,3.116,0,0,0-.42-.66q-9.438-9.463-18.907-18.9a1.114,1.114,0,0,0-.9-.246q-12.9,3.424-25.778,6.925a1.434,1.434,0,0,0-.846.857c-2.313,8.521-4.579,17.056-6.888,25.578a1.1,1.1,0,0,0,.372,1.239q9.32,9.3,18.616,18.631a1.191,1.191,0,0,0,1.351.378q12.737-3.47,25.5-6.845a1.1,1.1,0,0,0,.929-.92c1.707-6.446,3.45-12.884,5.182-19.324C1333.895,344.99,1334.475,342.8,1335.1,340.456Z" transform="translate(0 -615.365)" fill="#b98d39"/>
        <path id="Path_4765-2" data-name="Path 4765" d="M1740.185,242.011a4.459,4.459,0,0,1,.666.48q5.284,5.261,10.534,10.556a1.252,1.252,0,0,1,.179,1.018q-1.859,7.181-3.8,14.34a1.328,1.328,0,0,1-.781.793c-4.8,1.327-9.608,2.6-14.409,3.915a1.04,1.04,0,0,1-1.176-.319c-3.456-3.486-6.943-6.941-10.389-10.437a1.448,1.448,0,0,1-.366-1.149q1.846-7.2,3.81-14.369a1.359,1.359,0,0,1,.775-.831c4.8-1.326,9.613-2.6,14.424-3.891C1739.776,242.083,1739.905,242.066,1740.185,242.011ZM1723.561,260.8a3.549,3.549,0,0,0,.441.671c2.75,2.764,5.5,5.527,8.287,8.255a1.321,1.321,0,0,0,1.063.278q5.736-1.442,11.443-2.993a1.248,1.248,0,0,0,.682-.782q1.569-5.649,3.046-11.323a1.356,1.356,0,0,0-.262-1.1q-4.128-4.212-8.34-8.34a1.229,1.229,0,0,0-.991-.27q-5.722,1.484-11.418,3.069a1.325,1.325,0,0,0-.764.783c-.563,1.888-1.058,3.8-1.57,5.7C1724.648,256.714,1724.126,258.682,1723.561,260.8Z" transform="translate(-354.973 -553.487)" fill="#b98d39"/>
        <path id="Path_4766-2" data-name="Path 4766" d="M1321.6-164.6a3.416,3.416,0,0,1-.545-.394q-5.28-5.271-10.528-10.573a1.359,1.359,0,0,1-.267-1.1q1.877-7.178,3.854-14.329a1.329,1.329,0,0,1,.791-.778q7.152-1.99,14.332-3.877a1.431,1.431,0,0,1,1.156.317q5.285,5.195,10.489,10.471a1.422,1.422,0,0,1,.319,1.148q-1.877,7.18-3.86,14.332a1.247,1.247,0,0,1-.658.79c-4.83,1.334-9.672,2.624-14.512,3.92C1322.043-164.647,1321.91-164.644,1321.6-164.6Zm.891-2.989c.138-.055.2-.086.259-.1,3.9-1.053,7.807-2.1,11.7-3.179a1.129,1.129,0,0,0,.656-.68q1.558-5.707,3.028-11.437a1.222,1.222,0,0,0-.259-.987q-4.167-4.245-8.4-8.421a1.031,1.031,0,0,0-.819-.265q-5.82,1.521-11.618,3.128a1.12,1.12,0,0,0-.643.679q-1.587,5.749-3.094,11.52a1.017,1.017,0,0,0,.171.83q4.245,4.306,8.541,8.563A3.581,3.581,0,0,0,1322.487-167.591Z" transform="translate(-24.693 -201.234)" fill="#b98d39"/>
        <path id="Path_4767-2" data-name="Path 4767" d="M2110.337,250.027c-.291,1.1-.527,2.005-.77,2.91-.948,3.531-1.912,7.057-2.83,10.6a1.212,1.212,0,0,1-.991.993c-4.345,1.145-8.681,2.326-13.032,3.452a1.353,1.353,0,0,1-1.091-.3q-4.9-4.815-9.719-9.71a1.231,1.231,0,0,1-.191-1q1.734-6.662,3.549-13.3a1.021,1.021,0,0,1,.608-.6q6.688-1.846,13.4-3.612a1.255,1.255,0,0,1,1,.315q4.828,4.754,9.6,9.564A3.857,3.857,0,0,1,2110.337,250.027Zm-26.147,6.685a3.493,3.493,0,0,0,.439.67c2.542,2.559,5.086,5.118,7.668,7.638a1.437,1.437,0,0,0,1.155.316q5.26-1.353,10.487-2.834a1.446,1.446,0,0,0,.86-.843q1.456-5.238,2.786-10.51a1.244,1.244,0,0,0-.286-1q-3.857-3.933-7.79-7.791a1.308,1.308,0,0,0-1.062-.235c-3.411.88-6.8,1.841-10.219,2.7a1.45,1.45,0,0,0-1.218,1.237c-.533,2.132-1.128,4.248-1.694,6.371C2084.95,253.807,2084.592,255.183,2084.19,256.712Z" transform="translate(-645.55 -551.413)" fill="#b98d39"/>
        <path id="Path_4768-2" data-name="Path 4768" d="M2446.771,163.609a3.689,3.689,0,0,1-.5-.375c-2.762-2.753-5.527-5.5-8.26-8.285a1.214,1.214,0,0,1-.251-.982c.956-3.691,1.974-7.366,2.927-11.058a1.325,1.325,0,0,1,1.127-1.1c3.664-.941,7.308-1.957,10.971-2.9a1.339,1.339,0,0,1,1.082.283c2.737,2.683,5.427,5.414,8.155,8.106a1.155,1.155,0,0,1,.342,1.281c-1,3.68-1.974,7.367-2.991,11.042a1.256,1.256,0,0,1-.661.794c-3.8,1.069-7.6,2.089-11.411,3.119A5.237,5.237,0,0,1,2446.771,163.609Zm.541-1.768c.278-.039.377-.043.471-.068,3.187-.854,6.376-1.7,9.553-2.587a1.162,1.162,0,0,0,.7-.671q1.333-4.815,2.567-9.657a1.13,1.13,0,0,0-.254-.908q-3.518-3.585-7.1-7.1a1.03,1.03,0,0,0-.829-.235c-3.193.833-6.381,1.687-9.553,2.593a1.421,1.421,0,0,0-.811.856c-.886,3.144-1.725,6.3-2.542,9.465a1.109,1.109,0,0,0,.2.9c2.3,2.345,4.627,4.662,6.958,6.975A3.6,3.6,0,0,0,2447.312,161.841Z" transform="translate(-932.1 -470.494)" fill="#b98d39"/>
      </g>
    </g>
  </g>
</svg>
